# xmcd
#
# Track frame offsets:
#   150
#   9529
#   22964
#   31703
#   40211
#   52815
#   68532
#   80718
#   92677
#   103648
#   116990
#   127939
#   141384
#   153628
#   167493
#   180872
#   191883
#   200617
#   209347
#   221421
#
# Disc length: 3114 seconds
#
# Revision: 0
# Processed by: cddbd v1.5.2PL0 Copyright (c) Steve Scherf et al.
# Submitted via: GXTranscoder 2.0.1939
#
DISCID=0d0c2814
DTITLE=mgv s deutsche herz - freude liebe hoffnung
DYEAR=1999
DGENRE=Country
TTITLE0=Schiabt schon aufa da Tag
TTITLE1=Schau i von Berglan
TTITLE2=Blüah und Brot
TTITLE3=Wer darf Gast sein
TTITLE4=Ain´got time to die
TTITLE5=Die alten Straßen
TTITLE6=O Hamat,du teure mein
TTITLE7=Da Kohlbauabua
TTITLE8=Da Almhirt
TTITLE9=Da gmüatliche Gmanwirt
TTITLE10=Es gibt kane Tock´n mehr
TTITLE11=Die Nacht op.17
TTITLE12=Gnädig und barmherzig
TTITLE13=Ecce quomodo moritur
TTITLE14=Jugment Day
TTITLE15=Wanderschaft
TTITLE16=Die alte Gurk´n
TTITLE17=Laß mi schaun,laß mi schaun
TTITLE18=Immeramal muaß a Feiertag sein
TTITLE19=Liabs Karntnaland
EXTD=
EXTT0=
EXTT1=
EXTT2=
EXTT3=
EXTT4=
EXTT5=
EXTT6=
EXTT7=
EXTT8=
EXTT9=
EXTT10=
EXTT11=
EXTT12=
EXTT13=
EXTT14=
EXTT15=
EXTT16=
EXTT17=
EXTT18=
EXTT19=
PLAYORDER=
